<svg width="212" height="64" viewBox="0 0 212 64" fill="none" xmlns="http://www.w3.org/2000/svg">
<path fill-rule="evenodd" clip-rule="evenodd" d="M109.968 12.4386C109.179 12.7025 108.6 13.3209 108.388 14.1245C108.322 14.374 108.314 15.4033 108.314 24.4125V34.4233L108.418 34.6244C108.675 35.1253 109.355 35.1647 109.698 34.6987L109.831 34.5191V29.4053V24.2915H110.704H111.577L111.578 29.3106C111.578 32.4653 111.595 34.3891 111.623 34.4895C111.675 34.6709 111.905 34.9098 112.097 34.9811C112.407 35.0957 112.789 34.9633 112.989 34.6719L113.094 34.5193V24.4449C113.094 17.2389 113.08 14.3025 113.043 14.1315C112.877 13.3514 112.146 12.6117 111.331 12.3986C110.958 12.3012 110.323 12.3198 109.968 12.4386ZM111.108 13.9102C111.319 14.0157 111.416 14.1182 111.507 14.3325C111.569 14.4778 111.577 15.0135 111.577 18.6232V22.7478L111.474 22.7711C111.417 22.7839 111.029 22.7911 110.612 22.7872L109.854 22.7801V18.5844V14.3887L109.968 14.2225C110.227 13.847 110.715 13.7133 111.108 13.9102ZM104.339 14.7734C103.442 14.9052 102.734 15.5332 102.497 16.4079C102.444 16.6044 102.433 17.6217 102.432 22.4209L102.432 28.1974L102.328 28.3983C102.05 28.9394 101.315 28.9856 100.976 28.4832L100.846 28.2908L100.823 23.8211C100.806 20.7515 100.783 19.3088 100.748 19.2156C100.396 18.2637 99.5579 17.6595 98.5908 17.6595C97.7871 17.6595 96.9734 18.1464 96.613 18.843C96.373 19.3067 96.3668 19.399 96.366 22.4727C96.3656 24.3714 96.3491 25.3657 96.3166 25.4503C96.1838 25.7959 95.7456 26.0226 95.4042 25.9221C95.1828 25.857 95.0072 25.7223 94.9052 25.5395C94.8355 25.4144 94.8227 25.1995 94.8016 23.7952L94.7774 22.1936L94.6498 21.8952C94.398 21.3064 93.8188 20.7766 93.245 20.6102C91.7138 20.1661 90.2529 21.224 90.2529 22.7768V23.1636H89.912C89.1955 23.1636 90.1611 23.1636 89.0448 23.1636C88.6458 23.1636 88.54 23.1794 88.3671 23.2651C87.8193 23.5365 87.8296 24.3199 88.3845 24.5784C88.4989 24.6317 88.6722 24.6524 89.0041 24.6524C90.1231 24.6524 90.4023 24.6438 90.4023 24.6438C91.2512 24.6304 91.2932 24.6255 91.4417 24.5215C91.7178 24.3282 91.7673 24.1436 91.7693 23.299C91.7709 22.6138 91.7792 22.5402 91.8739 22.3741C92.0848 22.0041 92.6113 21.8801 92.9498 22.1207C93.2785 22.3545 93.2861 22.395 93.2865 23.9148C93.2867 24.6555 93.3078 25.3934 93.3334 25.5547C93.4367 26.2045 93.9338 26.8849 94.5163 27.1735C95.8003 27.8098 97.2357 27.2553 97.7764 25.9141C97.8504 25.7307 97.8597 25.4393 97.8813 22.6593C97.9045 19.6643 97.9067 19.6036 97.9997 19.4815C98.2787 19.1149 98.7777 19.0437 99.0825 19.3271C99.3155 19.5437 99.3066 19.3613 99.3066 23.9712C99.3066 26.9057 99.3225 28.3326 99.3571 28.4963C99.5412 29.3694 100.237 30.068 101.127 30.2728C102.131 30.5041 103.243 29.9923 103.692 29.0913C103.96 28.5547 103.948 28.8426 103.948 22.5556C103.948 17.0194 103.952 16.7718 104.034 16.6212C104.288 16.1504 105.015 16.1335 105.271 16.5924C105.345 16.7252 105.352 17.2667 105.373 24.6975C105.395 32.3557 105.399 32.6651 105.481 32.7836C105.743 33.162 106.366 33.2076 106.676 32.871C106.893 32.6354 106.886 32.9271 106.887 24.6073C106.888 16.0164 106.902 16.4365 106.612 15.9025C106.182 15.1114 105.237 14.6417 104.339 14.7734ZM116.043 14.862C115.267 15.1359 114.705 15.7561 114.54 16.5195C114.484 16.778 114.474 18.0262 114.474 24.6426C114.473 33.14 114.458 32.6283 114.716 32.9014C115.01 33.2121 115.628 33.1497 115.881 32.7836C115.963 32.6651 115.967 32.3563 115.989 24.7201L116.012 16.7798L116.122 16.606C116.279 16.3581 116.464 16.2613 116.781 16.2611C117.01 16.261 117.064 16.2791 117.208 16.403C117.529 16.6801 117.506 16.1803 117.507 22.744C117.507 27.637 117.518 28.7314 117.57 28.9226C117.759 29.619 118.331 30.1749 119.047 30.358C119.401 30.4484 120.177 30.4476 120.585 30.3564C121.125 30.2358 121.68 29.8067 121.932 29.3146C122.142 28.904 122.148 28.7691 122.148 23.9448V19.3873L122.252 19.234C122.528 18.829 123.11 18.8258 123.39 19.2277L123.504 19.3898L123.527 22.7768C123.548 25.89 123.556 26.1802 123.632 26.3668C124.022 27.3323 124.967 27.7924 126.245 27.6392C127.031 27.5449 127.59 27.1638 127.911 26.5021L128.053 26.2089L128.076 24.3817L128.099 22.5545L128.214 22.356C128.492 21.8752 129.169 21.8566 129.519 22.3203C129.599 22.4256 129.619 22.5359 129.64 22.9744C129.67 23.5845 129.75 23.8088 130.033 24.078C130.132 24.1715 130.322 24.2882 130.456 24.3374C130.691 24.4238 130.823 24.4268 134.327 24.4268C137.92 24.4268 137.957 24.4259 138.154 24.332C138.444 24.1936 138.577 23.979 138.573 23.6585C138.569 23.3758 138.474 23.1973 138.246 23.0455C138.124 22.9647 137.949 22.9595 134.648 22.938L131.178 22.9155L131.147 22.5771C131.111 22.1814 131.075 22.0563 130.897 21.6963C130.752 21.4032 130.366 20.9884 130.068 20.804C129.382 20.3805 128.322 20.3837 127.671 20.8112C127.188 21.1278 126.852 21.546 126.688 22.0338C126.595 22.3099 126.587 22.4452 126.563 24.1263L126.537 25.9236L126.408 26.0324C126.289 26.1325 126.24 26.1412 125.794 26.1412C125.312 26.1412 125.309 26.1407 125.176 26.0011L125.043 25.861L125.042 22.6513C125.041 19.091 125.039 19.053 124.749 18.5444C124.262 17.6897 123.229 17.2566 122.264 17.5031C121.52 17.6936 120.892 18.3038 120.695 19.0288C120.644 19.2183 120.632 20.1096 120.632 23.8674C120.631 27.0344 120.616 28.5172 120.582 28.6129C120.503 28.8337 120.34 28.9085 119.891 28.9299C119.409 28.9529 119.185 28.8718 119.086 28.6388C119.033 28.5151 119.023 27.4943 119.023 22.5642C119.023 16.0852 119.038 16.4644 118.76 15.9263C118.519 15.4599 117.944 14.9965 117.417 14.8443C117.06 14.7412 116.359 14.7502 116.043 14.862ZM96.1917 47.3705C96.0376 47.4765 96.0607 47.6738 96.265 47.9947C96.9689 49.1006 96.9544 50.6619 96.2306 51.6946C95.9972 52.0275 96.0762 52.3081 96.4031 52.3081C96.5214 52.3081 96.575 52.2723 96.6902 52.1163C96.9087 51.8203 97.1827 51.2406 97.2925 50.8418C97.4392 50.3091 97.439 49.3231 97.2921 48.7932C97.1692 48.3501 96.998 47.9654 96.7658 47.6105C96.5532 47.2857 96.4051 47.2238 96.1917 47.3705ZM95.3862 48.1625C95.2137 48.261 95.2059 48.4126 95.3577 48.7214C95.5497 49.1122 95.6289 49.4286 95.6289 49.8042C95.6289 50.1749 95.5616 50.4471 95.3568 50.9043L95.2076 51.2374L95.297 51.3554C95.3943 51.484 95.5754 51.5279 95.7122 51.456C95.8248 51.3968 96.0608 50.9213 96.1624 50.5486C96.2604 50.1894 96.2723 49.4933 96.1862 49.15C96.152 49.0135 96.057 48.7578 95.9751 48.5816C95.781 48.1642 95.6039 48.0381 95.3862 48.1625ZM94.5454 48.9926C94.4732 49.1008 94.4744 49.1804 94.5527 49.4485C94.5784 49.5368 94.5629 49.544 94.3477 49.544C94.1215 49.544 94.1116 49.5385 93.9973 49.3469C93.7213 48.8846 93.0554 48.8072 92.6529 49.1907C92.4903 49.3456 92.3667 49.6134 92.3673 49.8094C92.3687 50.2816 92.7895 50.6806 93.2886 50.6829C93.548 50.6842 93.8881 50.4873 94.0275 50.2554C94.116 50.1082 94.1382 50.0974 94.3531 50.0974C94.5703 50.0974 94.582 50.1033 94.5543 50.1989C94.4663 50.5023 94.4685 50.5522 94.5749 50.6633C94.7006 50.7947 94.895 50.8082 95.0012 50.693C95.224 50.4514 95.2991 49.6925 95.146 49.2316C95.0403 48.9136 95.0064 48.8793 94.7982 48.8793C94.6597 48.8793 94.6045 48.904 94.5454 48.9926Z" fill="#FF7F00"/>
<path fill-rule="evenodd" clip-rule="evenodd" d="M85.8641 10.0564C84.1577 10.4243 82.6728 12.1262 81.5531 14.9976C80.378 18.011 79.8676 22.2707 80.2129 26.1838C80.6906 31.5981 82.6107 35.8426 85.124 37.0401C85.5809 37.2577 86.0153 37.3411 86.5955 37.3225C87.1143 37.3059 87.203 37.2694 87.1575 37.0911C87.1318 36.9907 87.0997 36.9787 86.782 36.9504C85.6107 36.8462 84.5245 36.0887 83.615 34.7417C81.7447 31.9719 80.7608 27.5229 80.9302 22.601C81.0968 17.7605 82.4606 13.5339 84.5003 11.537C85.1875 10.8643 85.97 10.4661 86.7282 10.4035C87.1287 10.3705 87.2473 10.2946 87.1456 10.1364C87.0512 9.98934 86.3719 9.94693 85.8641 10.0564ZM86.9437 11.1183C85.067 11.3431 83.4072 13.7379 82.4628 17.5838C82.0149 19.4075 81.7977 21.3995 81.7977 23.6823C81.7977 25.7289 81.9535 27.3752 82.308 29.0736C83.3924 34.2694 85.8224 37.0993 88.2698 36.0167C90.044 35.2318 91.5611 32.3856 92.2667 28.5177L92.3558 28.0296L92.2407 27.8953C92.1774 27.8215 92.0362 27.6275 91.927 27.4642C91.751 27.2012 91.7259 27.1796 91.7063 27.2745C91.6942 27.3335 91.629 27.6964 91.5614 28.081C91.0856 30.7876 90.0742 33.0446 88.9111 33.9951C88.7518 34.1253 88.4664 34.3045 88.2769 34.3934C87.9486 34.5473 87.909 34.5551 87.4462 34.5551C86.9659 34.5551 86.9554 34.5528 86.561 34.3609C85.8093 33.9953 85.1581 33.2277 84.5591 32.0012C83.7829 30.4118 83.3054 28.5107 83.0535 26.0057C82.9569 25.0451 82.9431 22.4626 83.0297 21.5619C83.2458 19.3163 83.6468 17.4994 84.2545 16.0131C84.7245 14.8634 85.1356 14.2023 85.7718 13.5729C86.6218 12.7319 87.4418 12.549 88.3638 12.9948C89.5269 13.5572 90.6072 15.3669 91.2428 17.8173C91.3749 18.3269 91.462 18.5838 91.5023 18.5829C91.5356 18.5822 91.7044 18.5644 91.8774 18.5434L92.192 18.5052L92.1609 18.3018C92.1438 18.19 92.0586 17.8119 91.9714 17.4616C90.9375 13.3065 89.0072 10.8711 86.9437 11.1183ZM79.9755 15.7088C79.9469 15.7271 79.7475 16.0064 79.5323 16.3296C78.9336 17.2285 78.6861 17.4148 77.8787 17.5736C77.2708 17.6931 76.9546 17.7972 76.4286 18.0507C75.2147 18.636 74.2326 19.7148 73.7786 20.9616C73.4775 21.7887 73.4554 21.9748 73.4554 23.6823C73.4554 25.0118 73.4668 25.2673 73.5411 25.5997C74.022 27.7522 75.6297 29.3169 77.8075 29.752C78.7028 29.9308 78.9098 30.081 79.5235 30.9968C79.9196 31.588 79.9732 31.6495 80.0818 31.6367C80.3067 31.6103 80.3091 31.5261 80.1047 30.828C79.6605 29.3101 79.411 27.9531 79.2139 25.9832C79.1235 25.0802 79.1377 22.1224 79.2372 21.1333C79.3315 20.1949 79.4613 19.2978 79.619 18.494C79.7477 17.8375 80.0588 16.6077 80.1925 16.2261C80.3036 15.9092 80.3032 15.7798 80.1913 15.721C80.0869 15.6662 80.0459 15.6639 79.9755 15.7088ZM87.4034 19.2335C86.8598 19.4051 86.3909 20.0054 86.0758 20.9331C85.3221 23.1519 85.6582 26.4707 86.7595 27.6836C87.5446 28.5484 88.4763 28.117 89.0475 26.6241C89.2276 26.1534 89.4067 25.4189 89.4525 24.9629L89.4836 24.6523H89.0136C88.673 24.6523 88.4998 24.6319 88.3846 24.5782C87.8298 24.3198 87.8194 23.5364 88.3672 23.265C88.5406 23.1791 88.6457 23.1635 89.0512 23.1635H89.5304L89.4979 22.7705C89.365 21.1629 88.7808 19.7577 88.077 19.3528C87.8629 19.2297 87.5763 19.1789 87.4034 19.2335ZM84.6863 45.5423C83.5574 45.6717 82.6552 46.2064 82.2681 46.9752C82.1081 47.293 82.0953 47.349 82.0797 47.797C82.0526 48.5717 82.2012 49.0414 82.6085 49.4688C83.0139 49.8943 83.4607 50.1027 84.876 50.5264C86.1614 50.9112 86.5242 51.1452 86.4696 51.554C86.4201 51.9255 86.1429 52.103 85.5005 52.1747C84.8594 52.2462 84.3186 52.1255 83.7472 51.7836C83.3418 51.5409 83.0318 51.4065 82.8768 51.4063C82.6224 51.406 82.3896 51.5004 82.2099 51.6769C81.7216 52.1561 81.937 52.8766 82.7164 53.3716C83.3935 53.8015 83.9912 53.9461 85.1058 53.9493C85.7926 53.9513 85.9704 53.9368 86.3236 53.8499C87.7399 53.5016 88.4841 52.6545 88.4712 51.4056C88.4618 50.5049 88.079 49.8703 87.2888 49.4459C86.9489 49.2635 86.6507 49.1595 85.7951 48.9254C84.2676 48.5074 83.8287 48.1738 84.142 47.6693C84.2965 47.4205 84.5769 47.3274 85.1624 47.3304L85.6557 47.333L86.2884 47.6286C87.0256 47.9731 87.1781 48.0083 87.5161 47.9118C88.1877 47.7202 88.3513 46.8424 87.8137 46.3147C87.4013 45.9099 86.6603 45.6168 85.8612 45.5424C85.3063 45.4907 85.1361 45.4907 84.6863 45.5423ZM76.121 45.6716C74.9786 45.6947 74.7674 45.7097 74.6429 45.7766C74.4581 45.8758 74.3188 46.0495 74.2574 46.2573C74.225 46.3667 74.2137 47.5737 74.223 49.9248C74.2366 53.4064 74.2373 53.4301 74.3334 53.5566C74.3866 53.6266 74.5004 53.7245 74.5862 53.7742C74.7352 53.8603 74.8249 53.8644 76.5806 53.8644C78.3637 53.8644 78.4299 53.8613 78.7849 53.7604C79.9894 53.418 80.6449 52.578 80.6471 51.374C80.6488 50.5026 80.3485 49.9331 79.671 49.5226L79.3987 49.3577L79.5293 49.2653C79.7626 49.1002 79.9205 48.9073 80.0666 48.6085C80.2045 48.3267 80.2102 48.2923 80.2107 47.7287C80.2112 47.1854 80.2021 47.1231 80.0873 46.8827C79.8288 46.341 79.2963 45.9404 78.6044 45.7666C78.156 45.6541 77.7512 45.6386 76.121 45.6716ZM68.3975 45.7611C68.094 45.8964 67.9029 46.1654 67.58 46.9114C67.4177 47.2865 66.7734 48.7607 66.1483 50.1875C65.0813 52.6227 65.0116 52.7984 65.0111 53.0549C65.0101 53.6048 65.3212 53.887 65.9282 53.887C66.2903 53.887 66.509 53.7957 66.6573 53.5826C66.7098 53.507 66.8541 53.1824 66.9778 52.8611L67.2028 52.277L68.7846 52.2487C69.6546 52.2331 70.3821 52.2299 70.4012 52.2414C70.4203 52.253 70.5447 52.5316 70.6776 52.8604C70.8105 53.1893 70.9613 53.5143 71.0127 53.5826C71.3016 53.9669 72.0466 53.9892 72.4369 53.6252C72.6331 53.4422 72.702 53.278 72.7016 52.9936C72.7012 52.7586 72.6118 52.5327 71.6616 50.368C71.0899 49.0653 70.4761 47.6644 70.2977 47.255C70.1194 46.8456 69.9263 46.4193 69.8688 46.3076C69.7398 46.0578 69.5125 45.8386 69.2862 45.746C69.0539 45.6508 68.6285 45.6581 68.3975 45.7611ZM105.62 45.7251C105.433 45.7783 105.163 46.074 105.101 46.2931C105.036 46.5221 105.035 50.623 105.099 51.1283C105.203 51.9389 105.504 52.5706 106.031 53.0859C106.28 53.3293 106.44 53.4371 106.812 53.6136C107.07 53.7356 107.446 53.8717 107.648 53.9162C108.124 54.0208 109.114 54.021 109.589 53.9167C110.848 53.6396 111.692 52.8614 112.043 51.6537C112.145 51.3019 112.148 51.2321 112.165 48.8792C112.176 47.2148 112.166 46.4136 112.131 46.2984C112.015 45.9138 111.712 45.7087 111.257 45.7063C110.866 45.7044 110.615 45.8264 110.454 46.0972L110.337 46.293L110.336 48.2741C110.335 49.3637 110.315 50.4413 110.291 50.6688C110.234 51.1947 110.107 51.5287 109.872 51.7658C109.599 52.0422 109.345 52.1347 108.785 52.1618C107.801 52.2092 107.351 51.9771 107.063 51.2727C106.963 51.0276 106.96 50.9711 106.937 48.6536C106.916 46.5591 106.904 46.2694 106.836 46.1497C106.736 45.9709 106.53 45.7834 106.37 45.724C106.216 45.667 105.822 45.6676 105.62 45.7251ZM113.99 45.7612C113.539 45.9656 113.385 46.4098 113.611 46.8507C113.684 46.9918 113.776 47.0857 113.921 47.1648C114.122 47.274 114.161 47.2781 115.15 47.2932L116.171 47.3088L116.184 50.2967L116.196 53.2846L116.32 53.4675C116.482 53.7088 116.763 53.8419 117.108 53.8419C117.253 53.8419 117.438 53.8144 117.52 53.7809C117.747 53.6876 117.949 53.4324 118.008 53.1634C118.042 53.0052 118.059 52.0389 118.058 50.1935C118.057 48.689 118.057 47.4225 118.057 47.3791C118.058 47.3068 118.129 47.3001 118.902 47.3001C120.101 47.3001 120.331 47.2443 120.574 46.8945C120.654 46.7795 120.677 46.6815 120.677 46.4655C120.677 46.119 120.56 45.924 120.265 45.7775L120.06 45.676L117.117 45.677C114.354 45.6779 114.163 45.6831 113.99 45.7612ZM133.017 45.7608C132.798 45.8594 132.7 45.96 132.605 46.1837C132.544 46.3283 132.535 46.7925 132.535 49.7688C132.536 52.9882 132.541 53.1983 132.621 53.37C132.734 53.6145 132.944 53.7786 133.216 53.836C133.597 53.9163 133.915 53.8315 134.151 53.5865C134.35 53.3802 134.373 53.2574 134.373 52.377V51.5497L135.395 51.5293C136.562 51.5061 136.768 51.4684 137.431 51.1566C138.143 50.8224 138.648 50.207 138.861 49.4155C138.956 49.0607 138.968 48.2371 138.882 47.8866C138.796 47.5341 138.5 46.9533 138.28 46.7045C137.867 46.2386 137.027 45.8259 136.284 45.7245C136.088 45.6978 135.315 45.6764 134.565 45.677C133.34 45.6779 133.182 45.6864 133.017 45.7608ZM142.737 45.7478C142.543 45.8303 142.296 46.0554 142.197 46.2399C141.993 46.623 139.367 52.6749 139.332 52.8435C139.205 53.4541 139.584 53.887 140.247 53.887C140.608 53.887 140.824 53.7933 140.967 53.5754C141.026 53.4862 141.173 53.1576 141.295 52.8451L141.516 52.277L143.102 52.2486C143.975 52.233 144.704 52.2355 144.723 52.2541C144.742 52.2727 144.862 52.5488 144.989 52.8677C145.117 53.1866 145.264 53.5063 145.316 53.5781C145.612 53.9863 146.406 53.9917 146.79 53.5881C146.952 53.4177 147.011 53.2544 147.011 52.9765C147.011 52.7413 147.012 52.7424 144.623 47.2931C144.121 46.1471 143.982 45.9319 143.642 45.7702C143.403 45.6569 142.976 45.6463 142.737 45.7478ZM92.7565 45.7654C92.2913 45.8296 91.904 45.9443 91.4709 46.1462C90.3318 46.6772 89.5266 47.6609 89.2105 48.9079C89.103 49.3322 89.1028 50.3202 89.2102 50.7437C89.6015 52.2869 90.8632 53.4833 92.4352 53.8018C93.1724 53.9512 94.0577 53.882 94.762 53.6202C95.1852 53.4628 95.7374 53.1151 95.7873 52.9746C95.8858 52.6966 95.6001 52.4903 95.334 52.6474C94.5139 53.1316 94.0422 53.2743 93.2633 53.2743C92.4236 53.2743 91.77 53.0578 91.0859 52.5531C90.1283 51.8464 89.5813 50.5514 89.7462 49.3809C89.933 48.0552 90.8624 46.9471 92.1603 46.5028C92.5009 46.3862 92.5805 46.3768 93.2403 46.3761C93.9011 46.3753 93.9817 46.3846 94.3536 46.5043C94.5741 46.5752 94.9018 46.7224 95.0818 46.8314C95.4511 47.0549 95.6335 47.0819 95.7424 46.9291C95.846 46.784 95.8306 46.6521 95.6944 46.5184C95.5092 46.3365 94.6854 45.9585 94.2591 45.8598C93.8027 45.7541 93.14 45.7125 92.7565 45.7654ZM98.8703 45.7898C98.6608 45.9006 98.5666 45.9969 98.4741 46.1948C98.3945 46.3649 98.3896 46.5724 98.3896 49.804C98.3896 53.0454 98.3943 53.2429 98.4747 53.4168C98.5741 53.6314 98.7465 53.7774 98.9798 53.8446C99.0897 53.8761 99.893 53.8876 101.352 53.8783C103.461 53.865 103.565 53.8605 103.714 53.7742C103.959 53.6324 104.055 53.4721 104.077 53.1656C104.101 52.8415 104.039 52.6717 103.832 52.4927C103.595 52.2885 103.359 52.2628 101.717 52.2628H100.226L100.226 49.2965C100.226 45.9723 100.244 46.1615 99.8886 45.8823C99.7317 45.7592 99.6735 45.7425 99.3601 45.7304C99.1023 45.7205 98.9711 45.7364 98.8703 45.7898ZM122.583 45.8059C122.355 45.9073 122.161 46.1259 122.125 46.3202C122.11 46.4001 122.104 48.0201 122.112 49.9202L122.125 53.3748L122.247 53.5561C122.493 53.9203 122.404 53.9095 125.181 53.9095H127.64L127.85 53.7883C128.13 53.6269 128.233 53.4065 128.206 53.0319C128.181 52.6952 128.083 52.5506 127.775 52.3982L127.548 52.2854L125.779 52.2628L124.009 52.2403V51.4056V50.571L125.204 50.5484C126.221 50.5292 126.421 50.5142 126.544 50.4478C127.096 50.1514 127.099 49.3381 126.55 49.0502C126.362 48.9514 126.301 48.9462 125.17 48.9328L123.986 48.9187V48.1344V47.35L125.836 47.3363C127.486 47.3242 127.701 47.3143 127.831 47.2446C128.131 47.0836 128.294 46.7306 128.238 46.3637C128.2 46.1134 127.953 45.8322 127.716 45.7673C127.612 45.7391 126.635 45.7219 125.158 45.7224C122.939 45.723 122.755 45.729 122.583 45.8059ZM92.5509 46.9624C91.5078 47.2136 90.6288 48.0734 90.3611 49.1047C90.2626 49.4843 90.2627 50.1264 90.3615 50.4977C90.4949 50.9996 90.7348 51.3865 91.1959 51.8436C91.5436 52.1883 91.681 52.2902 92.0025 52.4415C92.4126 52.6345 92.8976 52.758 93.2403 52.7567C93.6037 52.7553 94.148 52.636 94.4836 52.4842C94.9557 52.2705 95.0969 52.0551 94.8948 51.8568C94.779 51.7431 94.6022 51.7417 94.4177 51.8529C93.9347 52.1441 93.1351 52.2244 92.5441 52.041C91.7794 51.8037 91.1216 51.1146 90.9461 50.3667C90.8748 50.063 90.8868 49.4694 90.9698 49.1919C91.275 48.1718 92.2046 47.4781 93.2615 47.4817C93.6692 47.4831 93.9182 47.5393 94.2917 47.7143C94.4543 47.7904 94.6397 47.8528 94.7038 47.8528C94.8355 47.8528 94.9867 47.697 94.9867 47.5614C94.9867 47.3568 94.5794 47.1239 93.9322 46.9584C93.6204 46.8787 92.89 46.8808 92.5509 46.9624ZM77.9133 47.3717C78.1892 47.513 78.304 47.7082 78.304 48.036C78.304 48.2451 78.2772 48.3521 78.1873 48.5028C77.9932 48.8279 77.9015 48.8544 76.9137 48.8714L76.052 48.8862V48.0663V47.2464L76.8908 47.262C77.6331 47.2758 77.7506 47.2884 77.9133 47.3717ZM136.228 47.4137C136.563 47.5321 136.829 47.8057 136.925 48.1312C137.096 48.7111 136.923 49.3634 136.523 49.6478C136.208 49.8717 135.912 49.932 135.108 49.9359L134.396 49.9394L134.383 48.6142L134.371 47.2889L135.188 47.3117C135.805 47.3289 136.059 47.3538 136.228 47.4137ZM92.7632 47.9343C92.2343 48.0637 91.7309 48.4833 91.4794 49.0045C91.3412 49.2909 91.3331 49.3366 91.3334 49.8266C91.3338 50.3183 91.3415 50.3609 91.481 50.6414C91.8537 51.391 92.6966 51.8353 93.5269 51.7199C93.9318 51.6636 94.1512 51.5665 94.1866 51.4279C94.2647 51.1228 94.0607 50.9582 93.7414 51.0688C93.0989 51.2913 92.3491 50.9971 92.0388 50.4006C91.9023 50.1381 91.8728 49.6819 91.9732 49.385C92.1985 48.7191 92.9847 48.329 93.6732 48.5416C93.978 48.6357 94.1324 48.5941 94.2087 48.3972C94.2714 48.2351 94.1478 48.0675 93.9023 47.9821C93.6788 47.9044 93.0017 47.8759 92.7632 47.9343ZM144.115 50.7176C144.116 50.7238 143.669 50.7289 143.123 50.7289C142.347 50.7289 142.135 50.7166 142.153 50.6725C142.165 50.6415 142.377 50.1086 142.622 49.4882C142.868 48.8679 143.081 48.3322 143.094 48.2978C143.112 48.2534 144.111 50.6209 144.115 50.7176ZM69.3255 49.5211C69.587 50.173 69.8012 50.7114 69.8014 50.7176C69.8016 50.7238 69.3549 50.7289 68.8087 50.7289C68.0322 50.7289 67.8209 50.7166 67.8396 50.6725C67.8527 50.6415 68.0534 50.139 68.2855 49.5559C68.5176 48.9728 68.7268 48.4472 68.7503 48.3879C68.7739 48.3287 68.806 48.2927 68.8217 48.3081C68.8373 48.3233 69.064 48.8692 69.3255 49.5211ZM78.2232 50.4959C78.6037 50.6799 78.7649 51.048 78.6655 51.5056C78.6017 51.7993 78.3308 52.0909 78.0511 52.1671C77.9452 52.196 77.4827 52.2173 76.9597 52.2174L76.052 52.2177V51.289V50.3602L77.0286 50.3754C77.9423 50.3895 78.0193 50.3973 78.2232 50.4959Z" fill="black"/>
</svg>
